<svg width="121" height="60" fill="none" xmlns="http://www.w3.org/2000/svg"><path d="M8.224 41.514l3.942-.005c3.712-.005 5.687-1.51 5.937-4.513.139-1.663-.226-2.843-1.094-3.524-.868-.681-2.234-1.012-4.095-1.012l-3.942.005-.748 9.049zm1.209-14.631l2.603-.005c2.595-.005 4.264-.446 5.012-1.319a5.204 5.204 0 001.246-3.011c.087-1.045-.167-1.976-.767-2.781-.609-.82-2.004-1.228-4.215-1.223l-3.189.005-.69 8.334zm15.235-13.94l22.845-.043-.532 6.464-7.496.014-2.316 28.01-8.047.015 2.317-28.01-7.304.014.532-6.464zm43.508 7.423l-6.852 2.407c-.72-2.843-2.331-4.263-4.863-4.258-1.184 0-2.143.321-2.882.954-.739.633-1.15 1.372-1.218 2.211-.082.983.269 1.76 1.036 2.335.767.585 2.407 1.343 4.925 2.283 2.297.815 4.08 1.63 5.37 2.436 1.28.81 2.278 1.899 3.002 3.29.72 1.386.998 2.997.85 4.833-.265 3.218-1.66 5.856-4.182 7.932-2.528 2.067-5.765 3.103-9.726 3.112-6.641.01-10.621-3.146-11.945-9.452l7.188-1.908c.576 3.462 2.393 5.203 5.453 5.198 1.395 0 2.556-.35 3.477-1.03.925-.682 1.443-1.579 1.534-2.691.072-.844-.182-1.592-.729-2.259-.551-.662-1.894-1.366-4.014-2.105-2.738-.935-4.757-1.784-6.075-2.551-1.31-.767-2.36-1.856-3.137-3.28-.772-1.42-1.088-3.04-.935-4.863.077-.935.25-1.817.509-2.652l2.944-.004.412-5.016c2.273-1.952 5.146-2.93 8.599-2.935 6.377-.01 10.123 2.661 11.26 8.013zm-65.328-7.38l12.512-.024c2.934-.005 5.13.206 6.588.643a5.52 5.52 0 011.602.767l-.494 5.98 3.506-.005a13.1 13.1 0 01-.034 1.669c-.316 3.855-2.263 6.33-5.845 7.433 4.037 1.371 5.874 4.186 5.524 8.444-.187 2.24-.902 4.139-2.153 5.678-1.257 1.544-2.734 2.575-4.436 3.093-1.693.513-4.066.772-7.112.782L.211 47.46H0v-.014l.1-1.2.245-2.953.101-1.204.25-3.011.09-1.094.25-3.002.1-1.203.245-2.964.096-1.184.245-2.959.1-1.204.24-2.978.091-1.127.25-2.992.1-1.19.245-2.958.1-1.237zm104.708-7.841l-29.333 8.623a2.31 2.31 0 01-2.853-1.554 2.302 2.302 0 011.553-2.849l31.535-9.27.057-.013.058-.015.058-.014.057-.01.058-.01.057-.009.058-.005.057-.005.058-.004.057-.01h.058c.096 0 .187.005.278.014l.053.005.163.029c.091.02.177.043.268.077a2.29 2.29 0 011.458 1.52l9.27 31.534a2.302 2.302 0 01-1.554 2.849 2.303 2.303 0 01-2.849-1.554l-8.622-29.329z" fill="#EE6800"/><path d="M88.658 14.644l-12.703 3.733 3.733 12.702 12.702-3.732-3.732-12.703z" fill="#1B3B8D"/><path d="M104.986 9.846l-12.703 3.732 3.733 12.703 12.702-3.732-3.732-12.703z" fill="#00B7A7"/><path d="M93.452 30.974l-12.703 3.732 3.732 12.702 12.703-3.732-3.732-12.702z" fill="#00A2D4"/><path d="M109.786 26.177L97.083 29.91l3.732 12.702 12.703-3.732-3.732-12.703z" fill="#818181"/><path d="M112.85 56.044l.916-.053c0 .259.039.484.12.667a.935.935 0 00.441.45c.216.12.465.178.748.178.398 0 .7-.082.897-.24.202-.158.297-.35.297-.566a.704.704 0 00-.177-.446c-.125-.139-.422-.312-.897-.518-.474-.201-.781-.345-.916-.431a1.502 1.502 0 01-.508-.485 1.19 1.19 0 01-.173-.637c0-.418.168-.782.499-1.084.336-.297.801-.45 1.4-.45.667 0 1.175.152 1.521.464.35.307.527.715.541 1.218l-.882.063c-.014-.322-.125-.576-.34-.768-.211-.187-.514-.283-.902-.283-.312 0-.556.072-.729.216-.173.144-.259.302-.259.47 0 .168.077.317.226.441.1.087.354.22.772.403.69.297 1.127.537 1.304.71.288.273.432.614.432 1.012 0 .263-.082.522-.245.776-.163.255-.408.456-.739.61-.33.153-.724.225-1.17.225-.613 0-1.136-.153-1.563-.456-.427-.306-.633-.805-.614-1.486zm-5.802 1.827l1.117-5.328h.83l-.192.93c.36-.364.7-.628 1.012-.796.316-.167.633-.249.964-.249.436 0 .777.12 1.026.355s.374.547.374.94c0 .196-.048.508-.139.93l-.719 3.218h-.902l.748-3.371c.072-.331.11-.571.11-.73a.548.548 0 00-.187-.43c-.124-.111-.307-.169-.541-.169-.475 0-.897.168-1.266.5-.37.335-.643.905-.816 1.716l-.518 2.479h-.901v.005zm-4.642-2.115c0 .504.12.882.364 1.141.24.26.552.389.921.389.197 0 .389-.039.58-.12.192-.077.37-.197.533-.36.167-.163.307-.345.422-.551.115-.206.211-.427.283-.662.105-.33.153-.647.153-.95 0-.479-.12-.853-.364-1.117a1.207 1.207 0 00-.921-.398c-.288 0-.547.067-.782.202-.235.134-.446.33-.638.594a2.55 2.55 0 00-.417.911c-.091.34-.134.652-.134.921zm-.906.086c0-1.035.307-1.894.916-2.58.503-.56 1.165-.839 1.985-.839.642 0 1.156.202 1.549.6.393.402.59.94.59 1.62 0 .61-.125 1.18-.37 1.703a2.71 2.71 0 01-1.055 1.208 2.683 2.683 0 01-1.443.422c-.412 0-.791-.09-1.132-.263a1.818 1.818 0 01-.777-.753 2.31 2.31 0 01-.263-1.118zm-2.456 2.029l1.118-5.328h.901l-1.117 5.328h-.902zm1.324-6.325l.216-1.026h.901l-.216 1.026h-.901zm-2.043 5.586l-.149.744a2.449 2.449 0 01-.633.086c-.36 0-.647-.091-.863-.269a.682.682 0 01-.24-.546c0-.115.044-.389.13-.806l.647-3.102h-.719l.144-.7h.72l.273-1.305 1.04-.623-.412 1.932h.892l-.154.7h-.882l-.614 2.95c-.077.373-.115.599-.115.67 0 .106.029.193.091.245.062.058.163.087.302.087.202-.005.384-.024.542-.063zm-4.196-.225c-.638.72-1.295 1.074-1.961 1.074-.413 0-.744-.115-.998-.35a1.128 1.128 0 01-.379-.863c0-.226.063-.61.188-1.156l.7-3.078h.91l-.776 3.452a3.123 3.123 0 00-.096.672.52.52 0 00.187.426c.125.101.307.154.547.154.259 0 .508-.063.757-.187a2.02 2.02 0 00.638-.499 2.55 2.55 0 00.436-.743 6.55 6.55 0 00.26-.96l.508-2.315h.901l-1.18 5.327h-.838l.196-.954zm-5.975.964l1.535-7.352h.901l-1.534 7.352h-.902zm-4.59-2.115c0 .504.12.882.365 1.141.24.26.552.389.921.389.197 0 .388-.039.58-.12.192-.077.37-.197.532-.36.168-.163.307-.345.422-.551a3.06 3.06 0 00.279-.662c.105-.33.158-.647.158-.95 0-.479-.12-.853-.364-1.117a1.205 1.205 0 00-.921-.398c-.288 0-.547.067-.782.202a2.01 2.01 0 00-.638.594 2.54 2.54 0 00-.417.911c-.091.34-.134.652-.134.921zm-.9.086c0-1.035.306-1.894.915-2.58.504-.56 1.166-.839 1.986-.839.637 0 1.155.202 1.548.6.394.402.59.94.59 1.62 0 .61-.124 1.18-.369 1.703-.245.527-.6.93-1.055 1.208a2.685 2.685 0 01-1.443.422c-.413 0-.792-.09-1.132-.263-.34-.178-.6-.427-.777-.753-.177-.317-.264-.69-.264-1.118zm-5.209.202l.916-.053c0 .259.039.484.12.667a.93.93 0 00.442.45c.215.12.465.178.748.178.398 0 .7-.082.896-.24.202-.158.298-.35.298-.566a.704.704 0 00-.178-.446c-.124-.139-.422-.312-.897-.518-.474-.201-.781-.345-.915-.431a1.5 1.5 0 01-.509-.485 1.188 1.188 0 01-.172-.637c0-.418.167-.782.498-1.084.336-.297.801-.45 1.4-.45.667 0 1.175.152 1.52.464.35.307.528.715.543 1.218l-.883.063c-.014-.322-.124-.576-.34-.768-.211-.187-.513-.283-.902-.283-.312 0-.556.072-.729.216-.172.144-.259.302-.259.47 0 .168.077.317.226.441.1.087.355.22.772.403.69.297 1.127.537 1.304.71.288.273.432.614.432 1.012 0 .263-.082.522-.245.776-.163.255-.407.456-.738.61-.331.153-.724.225-1.17.225-.614 0-1.137-.153-1.564-.456-.431-.306-.633-.805-.614-1.486zm-4.402-.115l.916.09c-.23.667-.551 1.157-.973 1.478a2.292 2.292 0 01-1.434.484c-.58 0-1.05-.187-1.41-.56-.36-.375-.537-.898-.537-1.569 0-.58.115-1.15.345-1.712.23-.561.561-.988.993-1.28.431-.293.92-.437 1.472-.437.57 0 1.026.163 1.362.485.336.32.503.748.503 1.28l-.891.062c-.005-.335-.101-.604-.293-.79-.192-.193-.446-.289-.762-.289a1.41 1.41 0 00-.95.346c-.268.23-.48.58-.628 1.045-.154.47-.23.92-.23 1.352 0 .456.1.796.302 1.022.201.225.45.34.743.34.297 0 .576-.11.849-.336.254-.215.465-.556.623-1.011zm-5.97 1.942l1.117-5.328h.902l-1.117 5.328h-.902zm1.324-6.325l.215-1.026h.902l-.216 1.026h-.901zm-2.043 5.586l-.149.744a2.449 2.449 0 01-.633.086c-.36 0-.647-.091-.858-.269a.682.682 0 01-.24-.546c0-.115.043-.389.13-.806l.647-3.102h-.72l.144-.7h.72l.273-1.305 1.04-.623-.412 1.932h.892l-.153.7h-.883l-.618 2.95c-.077.373-.115.599-.115.67 0 .106.028.193.09.245.063.058.164.087.303.087a2.57 2.57 0 00.542-.063zm-7.165-1.088l.916-.053c0 .259.039.484.12.667a.931.931 0 00.441.45c.216.12.466.178.748.178.398 0 .7-.082.897-.24.202-.158.297-.35.297-.566a.704.704 0 00-.177-.446c-.125-.139-.422-.312-.897-.518-.474-.201-.781-.345-.916-.431a1.501 1.501 0 01-.508-.485 1.189 1.189 0 01-.172-.637c0-.418.167-.782.498-1.084.336-.297.801-.45 1.4-.45.667 0 1.175.152 1.52.464.35.307.528.715.542 1.218l-.882.063c-.014-.322-.125-.576-.34-.768-.211-.187-.513-.283-.902-.283-.312 0-.556.072-.729.216-.172.144-.259.302-.259.47 0 .168.077.317.226.441.1.087.355.22.772.403.69.297 1.127.537 1.304.71.288.273.432.614.432 1.012 0 .263-.082.522-.245.776-.163.255-.407.456-.738.61-.331.153-.724.225-1.17.225-.614 0-1.137-.153-1.564-.456-.431-.306-.638-.805-.614-1.486zm-2.388 1.827l1.118-5.328h.901l-1.117 5.328h-.902zm1.329-6.325l.215-1.026h.902l-.216 1.026h-.901zm-5.937 3.97c0 .365.038.638.105.825.101.26.245.456.432.59.187.134.393.201.619.201.297 0 .594-.105.892-.311.297-.211.532-.533.719-.969.182-.436.273-.854.273-1.256 0-.437-.12-.787-.364-1.046a1.194 1.194 0 00-.902-.388c-.22 0-.436.057-.642.177a1.85 1.85 0 00-.58.542c-.178.24-.317.532-.408.868-.1.336-.144.59-.144.767zm-1.141 2.834l.925.082c-.005.21.02.364.077.47a.549.549 0 00.268.24c.163.072.374.11.633.11.547 0 .94-.144 1.18-.427.158-.192.302-.604.436-1.242l.092-.431c-.47.48-.974.714-1.506.714-.537 0-.988-.197-1.348-.595-.364-.393-.542-.959-.542-1.683 0-.6.144-1.146.427-1.65.288-.503.624-.877 1.017-1.136.393-.254.8-.383 1.218-.383.695 0 1.232.326 1.611.978l.187-.863h.84l-1.084 5.145c-.116.566-.269 1.007-.46 1.324a1.93 1.93 0 01-.797.733 2.55 2.55 0 01-1.175.264c-.426 0-.796-.053-1.107-.168-.307-.11-.538-.273-.691-.484a1.217 1.217 0 01-.225-.73c.005-.076.01-.167.024-.268zm-4.594-2.594c0 .504.12.882.364 1.141.24.26.552.389.92.389.197 0 .39-.039.581-.12.192-.077.37-.197.532-.36.168-.163.307-.345.422-.551.115-.206.211-.427.283-.662.106-.33.158-.647.158-.95 0-.479-.12-.853-.364-1.117a1.205 1.205 0 00-.92-.398c-.288 0-.547.067-.782.202a2.06 2.06 0 00-.638.594c-.192.26-.331.561-.417.911a3.64 3.64 0 00-.14.921zm-.902.086c0-1.035.307-1.894.916-2.58.504-.56 1.165-.839 1.985-.839.643 0 1.156.202 1.55.6.392.402.59.94.59 1.62 0 .61-.126 1.18-.37 1.703-.245.527-.6.93-1.055 1.208a2.685 2.685 0 01-1.444.422c-.412 0-.79-.09-1.131-.263-.34-.178-.6-.427-.777-.753-.178-.317-.264-.69-.264-1.118zm-2.503 2.029l1.534-7.352h.902l-1.535 7.352h-.901zm-8.282 0l2.316-2.7-1.328-2.633h1.007l.46.945c.168.355.317.686.442 1.007l1.53-1.952h1.107l-2.22 2.69 1.347 2.638h-1.007l-.546-1.088c-.11-.226-.24-.509-.38-.844l-1.591 1.932H34.78v.005zm-4.085-3.146h3.001c.005-.091.005-.158.005-.201 0-.451-.115-.801-.34-1.04-.23-.24-.523-.36-.883-.36-.388 0-.743.134-1.064.397-.321.269-.561.672-.72 1.204zm2.651 1.338l.883.081c-.13.437-.422.854-.878 1.247-.455.394-1.002.59-1.635.59-.393 0-.758-.091-1.088-.273a1.78 1.78 0 01-.753-.796 2.622 2.622 0 01-.26-1.185c0-.58.135-1.141.403-1.688.269-.546.619-.95 1.046-1.218a2.619 2.619 0 011.395-.398c.638 0 1.146.197 1.525.59.38.393.57.93.57 1.607 0 .259-.023.527-.071.8h-3.937c-.015.106-.02.197-.02.283 0 .499.116.878.346 1.142.23.263.513.393.844.393.312 0 .619-.1.92-.307.308-.197.543-.49.71-.868zm-6.267 1.808l1.534-7.352h.902l-1.535 7.352h-.901zm-4.287-2.177c0 .398.029.671.086.825.082.215.22.393.412.522.192.135.413.202.667.202.523 0 .945-.293 1.27-.878.322-.585.485-1.184.485-1.793 0-.451-.105-.796-.326-1.046a1.033 1.033 0 00-.806-.369c-.23 0-.445.062-.642.182a1.92 1.92 0 00-.552.547 3.281 3.281 0 00-.422.892c-.115.35-.172.657-.172.916zm-1.789 4.22l1.54-7.376h.839l-.154.748c.312-.32.59-.546.835-.67.244-.126.503-.188.781-.188.509 0 .93.187 1.266.552.336.369.504.896.504 1.582a3.96 3.96 0 01-.278 1.515c-.183.456-.408.82-.677 1.099a2.78 2.78 0 01-.815.608 1.95 1.95 0 01-.844.197c-.642 0-1.136-.326-1.491-.973l-.604 2.906h-.902zm-8.133-2.043l1.117-5.328h.902l-.182.883c.335-.38.637-.638.906-.777.269-.144.556-.216.868-.216.33 0 .609.086.83.264.22.172.369.417.436.733.273-.335.556-.585.858-.748.302-.168.614-.25.945-.25.446 0 .777.106 1.002.317.22.211.336.504.336.887 0 .163-.038.437-.12.816l-.729 3.428h-.901l.738-3.515c.063-.287.096-.494.096-.618a.535.535 0 00-.168-.413c-.11-.1-.268-.148-.47-.148-.273 0-.546.081-.83.244a1.762 1.762 0 00-.656.643c-.154.264-.293.671-.413 1.223l-.542 2.584h-.901l.753-3.591c.053-.245.081-.418.081-.523a.549.549 0 00-.163-.417.587.587 0 00-.422-.163c-.259 0-.527.081-.81.244a1.955 1.955 0 00-.69.681c-.178.293-.322.705-.437 1.247l-.528 2.518h-.906v-.005zM8.23 55.756c0 .504.12.882.365 1.141.24.26.551.389.92.389.197 0 .389-.039.58-.12.192-.077.37-.197.533-.36.168-.163.307-.345.422-.551.115-.206.21-.427.283-.662.105-.33.153-.647.153-.95 0-.479-.12-.853-.364-1.117a1.205 1.205 0 00-.92-.398c-.289 0-.548.067-.783.202a2.04 2.04 0 00-.637.594c-.192.26-.331.561-.418.911a3.66 3.66 0 00-.134.921zm-.901.086c0-1.035.307-1.894.916-2.58.503-.56 1.165-.839 1.985-.839.638 0 1.155.202 1.549.6.393.402.59.94.59 1.62 0 .61-.125 1.18-.37 1.703-.244.527-.6.93-1.055 1.208a2.685 2.685 0 01-1.443.422c-.412 0-.791-.09-1.132-.263-.34-.178-.6-.427-.777-.753-.177-.317-.263-.69-.263-1.118zm-1.717-.56l.973.134c-.307.848-.757 1.491-1.347 1.927a3.254 3.254 0 01-1.985.652c-.892 0-1.602-.273-2.13-.815-.522-.546-.786-1.328-.786-2.34 0-1.323.398-2.417 1.194-3.285.71-.772 1.592-1.155 2.642-1.155.782 0 1.41.21 1.894.628.485.417.763.978.84 1.683l-.916.081c-.101-.532-.302-.925-.605-1.189-.302-.264-.695-.393-1.17-.393-.901 0-1.63.398-2.181 1.199-.48.69-.725 1.506-.725 2.45 0 .753.187 1.334.557 1.727.369.398.853.6 1.453.6.508 0 .968-.169 1.38-.495.423-.336.72-.806.912-1.41z" fill="#EE6800"/><div xmlns="" id="divScriptsUsed" style="display: none"/><script xmlns="" id="globalVarsDetection" src="moz-extension://9738336a-7f9e-44a7-be6a-3904bd6a59d3/js/wrs_env.js"/></svg>