<svg width="35" height="40" fill="none" xmlns="http://www.w3.org/2000/svg"><path d="M5.125 29.754h1.78c.432 0 .794.14 1.08.421.286.28.426.631.426 1.052 0 .421-.146.772-.432 1.052-.285.28-.647.426-1.079.426H5.627v1.743h-.502v-4.694zm1.78.47H5.634v2.007h1.273c.302 0 .545-.092.728-.275.184-.184.275-.427.275-.729s-.091-.545-.275-.728c-.183-.184-.426-.275-.728-.275zm3.082 3.755h2.783v.47H9.485v-4.695H12.7v.47H9.987v1.543h2.174v.47H9.987v1.742zm3.781-4.225h1.878c.415 0 .76.135 1.03.4.276.27.41.604.41 1.003 0 .2-.032.383-.102.55-.07.168-.151.297-.243.389a1.898 1.898 0 01-.286.237 1.088 1.088 0 01-.242.13l-.103.032 1.106 1.942h-.572l-1.041-1.877h-1.338v1.877h-.502c.005.011.005-4.683.005-4.683zm1.878.47h-1.37v1.872h1.37c.286 0 .513-.081.685-.254.173-.167.254-.399.254-.685 0-.286-.087-.512-.254-.685-.172-.162-.399-.248-.685-.248zm2.65-.47h3.182v.47h-2.681v1.607h2.142v.47h-2.142v2.142h-.502v-4.689zm4.623 4.225h2.784v.47h-3.286v-4.695h3.216v.47h-2.714v1.543h2.174v.47H22.92v1.742zm4.186-.173a2.328 2.328 0 01-.7-1.71c0-.67.231-1.241.7-1.71a2.329 2.329 0 011.71-.702c.238 0 .465.033.686.103.216.065.4.145.54.242.145.092.27.19.377.286.108.098.184.178.232.249l.076.102-.335.302c-.01-.021-.032-.048-.06-.086a1.33 1.33 0 00-.183-.189 1.953 1.953 0 00-.313-.243 2.032 2.032 0 00-1.02-.28c-.539 0-.987.189-1.359.56-.367.373-.55.837-.55 1.382 0 .55.183 1.014.55 1.387.367.372.82.56 1.36.56.2 0 .394-.026.577-.08a1.92 1.92 0 00.459-.2c.118-.08.226-.156.318-.232a.938.938 0 00.194-.205l.065-.08.334.301a.821.821 0 01-.08.103c-.038.043-.12.119-.238.232-.124.113-.253.21-.388.297a2.126 2.126 0 01-.54.232c-.226.07-.453.102-.69.102-.68-.022-1.252-.254-1.722-.723zm4.052-4.052h3.453v.47h-1.478v4.219h-.502v-4.22h-1.478c.005 0 .005-.469.005-.469zM7.542 37.351l1.624-2.045h.89V40H9.054v-3.13l-1.51 1.921-1.506-1.91v3.113h-1.01v-4.693h.907l1.607 2.05zm4.721 1.742h2.514v.901h-3.523v-4.693h3.453v.906h-2.444v.939h1.91v.9h-1.91v1.047zm3.448-3.792h1.742c.68 0 1.258.226 1.716.68a2.24 2.24 0 01.696 1.666 2.24 2.24 0 01-.696 1.668c-.464.453-1.036.68-1.716.68h-1.742V35.3zm1.748.906h-.74v2.881h.74c.388 0 .717-.14.993-.42.275-.281.41-.621.41-1.026 0-.4-.135-.744-.4-1.025-.27-.27-.604-.41-1.003-.41zm3.345 3.787v-4.693h1.009v4.693h-1.01zm4.624-1.974l-.572-1.543-.572 1.543h1.144zm.334.868h-1.807l-.4 1.106h-1.073l1.845-4.693h1.068l1.845 4.693h-1.073l-.405-1.106z" fill="#fff"/><path fill-rule="evenodd" clip-rule="evenodd" d="M10.235 5.52l14.998 8.27 3.982 2.196-4.09 2.196-1.969 1.057-3.814 2.045-9.107 4.883-3.896 2.093V11.157l3.896 1.872 5.746 2.763-1.425.76-2.39 1.285-1.931-.923v4.926l3.911-2.099.934-.502 2.417-1.295 1.397-.755.599-.318 1.65-.885L10.236 9.97 6.339 7.823 3.901 6.48v33.515H0V0h.227l6.112 3.372 3.896 2.147z" fill="#fff"/><path fill-rule="evenodd" clip-rule="evenodd" d="M20.939 11.422l9.91-4.942v21.634h3.902V0h-.227L16.698 9.08l4.24 2.342z" fill="#fff"/></svg>